# xmcd
# 
# Track frame offsets:
#     150
#     12757
#     34992
#     51407
#     70785
#     93150
#     109475
#     127715
#     145140
#     178310
#     200975
# 
# Disc length: 2963
# 
# Revision: 3
# Processed by: cddbd v1.5.2PL0 Copyright (c) Steve Scherf et al.
# Submitted via: fre:ac v1.0.31
# 
DISCID=a00b910b
DTITLE=North Mississippi Allstars - Electric Blue Watermelon
DYEAR=2005
DGENRE=Rock/Pop
TTITLE0=Mississippi Boll Weevil
TTITLE1=No Mo
TTITLE2=Teasin' Brown
TTITLE3=Moonshine
TTITLE4=Hurry Up Sunrise
TTITLE5=Stompin' My Foot
TTITLE6=Bang Bang Lulu
TTITLE7=Deep Sea Blue
TTITLE8=Mean Ol' Wind Died Down
TTITLE9=Horseshoe
TTITLE10=Bounce Ball
EXTD=
EXTT0=
EXTT1=
EXTT2=
EXTT3=
EXTT4=
EXTT5=
EXTT6=
EXTT7=
EXTT8=
EXTT9=
EXTT10=
PLAYORDER=
